HIERARCHY
ROOT hip
{
	OFFSET 0.000000 0.000000 0.000000 
	CHANNELS 6 Xposition Yposition Zposition Xrotation Zrotation Yrotation
	JOINT abdomen
	{
		OFFSET 0.000000 3.402643 0.000000 
		CHANNELS 3 Xrotation Zrotation Yrotation
		JOINT chest
		{
			OFFSET 0.000000 8.438565 -0.680529 
			CHANNELS 3 Xrotation Zrotation Yrotation
			JOINT neck
			{
				OFFSET 0.000000 10.207942 -0.272212 
				CHANNELS 3 Xrotation Zrotation Yrotation
				JOINT head
				{
					OFFSET 0.000000 3.130431 0.000000 
					CHANNELS 3 Xrotation Zrotation Yrotation
					End Site
					{
						OFFSET 0.000000 3.130435 0.000000 
					}
				}
			}
			JOINT lCollar
			{
				OFFSET 3.470700 6.669187 -0.816635 
				CHANNELS 3 Yrotation Zrotation Xrotation
				JOINT lShldr
				{
					OFFSET 3.198488 0.000000 0.000000 
					CHANNELS 3 Zrotation Yrotation Xrotation
					JOINT lForeArm
					{
						OFFSET 10.139888 0.000000 0.000000 
						CHANNELS 3 Yrotation Zrotation Xrotation
						JOINT lHand
						{
							OFFSET 8.370511 0.000000 0.000000 
							CHANNELS 3 Zrotation Yrotation Xrotation
							End Site
							{
								OFFSET 4.083176 0.000000 0.000000 
							}
						}
					}
				}
			}
			JOINT rCollar
			{
				OFFSET -3.470700 6.669187 -0.816635 
				CHANNELS 3 Yrotation Zrotation Xrotation
				JOINT rShldr
				{
					OFFSET -3.198488 0.000000 0.000000 
					CHANNELS 3 Zrotation Yrotation Xrotation
					JOINT rForeArm
					{
						OFFSET -10.139888 0.000000 0.000000 
						CHANNELS 3 Yrotation Zrotation Xrotation
						JOINT rHand
						{
							OFFSET -8.370511 0.000000 0.000000 
							CHANNELS 3 Zrotation Yrotation Xrotation
							End Site
							{
								OFFSET -4.083176 0.000000 0.000000 
							}
						}
					}
				}
			}
		}
	}
	JOINT lThigh
	{
		OFFSET 5.308129 -1.633274 1.361059 
		CHANNELS 3 Xrotation Zrotation Yrotation
		JOINT lShin
		{
			OFFSET -2.041588 -20.007561 0.000000 
			CHANNELS 3 Xrotation Zrotation Yrotation
			JOINT lFoot
			{
				OFFSET 0.000000 -19.190928 -1.224953 
				CHANNELS 3 Xrotation Yrotation Zrotation
				End Site
				{
					OFFSET 0.000000 -2.449906 4.627600 
				}
			}
		}
	}
	JOINT rThigh
	{
		OFFSET -5.308129 -1.633274 1.361059 
		CHANNELS 3 Xrotation Zrotation Yrotation
		JOINT rShin
		{
			OFFSET 2.041588 -20.007561 0.000000 
			CHANNELS 3 Xrotation Zrotation Yrotation
			JOINT rFoot
			{
				OFFSET 0.000000 -19.190928 -1.224953 
				CHANNELS 3 Xrotation Yrotation Zrotation
				End Site
				{
					OFFSET 0.000000 -2.449906 4.627600 
				}
			}
		}
	}
}
MOTION
Frames: 8
Frame Time: 0.011111
-2.117946 53.510616 18.595516 2.599940 -3.010213 -1.955293 3.160755 1.067407 1.458242 -8.986918 1.396040 0.367457 -16.329281 -1.540056 -1.817600 36.192997 6.392275 -2.273000 -1.896031 -0.900906 0.061420 -76.260170 -16.344561 28.747017 -63.052658 10.093467 12.721235 6.992188 16.005859 -54.460197 5.164488 -1.441709 -0.481386 77.361923 6.342401 18.605015 65.256401 -10.199993 13.734859 -7.001954 -15.996095 21.689455 -5.611561 10.610054 -6.963645 25.707617 -5.283152 -1.859283 -33.354794 3.666953 3.787091 -2.411816 -22.318928 -3.020797 3.503798 5.034273 -0.024802 -5.287502 0.779169 0.753194 
-2.117324 53.510307 18.598005 2.609690 -3.000124 -1.955360 3.131330 1.038776 1.456055 -9.006455 1.396165 0.366981 -16.299841 -1.520428 -1.824175 36.201660 6.367075 -2.285356 -1.896031 -0.900906 0.061420 -76.251450 -16.324600 28.678806 -63.041729 10.092222 12.720721 6.992188 16.005859 -54.665276 5.164488 -1.441709 -0.481386 77.356209 6.302567 18.665073 65.299828 -10.202307 13.757167 -7.001954 -15.996095 21.777344 -5.603058 10.592365 -6.961933 25.698637 -5.278910 -1.877417 -33.379227 3.706089 3.816700 -2.411815 -22.318930 -3.020797 3.503794 5.034276 -0.024802 -5.287420 0.779574 0.753384 
-2.117013 53.509369 18.599249 2.609705 -3.000568 -1.945605 3.121501 1.040322 1.436134 -9.025995 1.395840 0.356750 -16.290224 -1.538881 -1.819060 36.221668 6.381052 -2.285773 -1.896031 -0.900906 0.061420 -76.281555 -16.306450 28.600222 -63.030807 10.090974 12.710441 6.992188 16.005859 -54.821526 5.164488 -1.441709 -0.481386 77.339836 6.271480 18.714682 65.319939 -10.199364 13.759592 -7.001954 -15.996095 21.845703 -5.602533 10.581860 -6.990820 25.708614 -5.278947 -1.877810 -33.413326 3.741572 3.855148 -2.411816 -22.318928 -3.020798 3.503795 5.034275 -0.024802 -5.295729 0.787505 0.757205 
-2.116701 53.509991 18.601112 2.590188 -3.002112 -1.925071 3.131147 1.020722 1.435029 -9.035763 1.395900 0.356512 -16.290462 -1.569739 -1.820220 36.243027 6.445606 -2.282718 -1.896031 -0.900906 0.061420 -76.282051 -16.296696 28.609989 -63.041729 10.092222 12.720721 6.992188 16.005859 -54.801991 5.164488 -1.441709 -0.481386 77.340820 6.261764 18.714682 65.309090 -10.198796 13.749128 -7.001954 -15.996095 21.835941 -5.595320 10.585393 -6.970428 25.717594 -5.283194 -1.859678 -33.406639 3.727085 3.821235 -2.411816 -22.318928 -3.020797 3.503797 5.034273 -0.024803 -5.287724 0.778075 0.752679 
-2.116701 53.510616 18.602045 2.570716 -3.023154 -1.905414 3.150761 1.070411 1.418358 -9.045524 1.386206 0.356728 -16.281019 -1.609678 -1.819019 36.226379 6.532655 -2.260774 -1.896031 -0.900906 0.061420 -76.282547 -16.286943 28.658817 -63.052658 10.093467 12.721235 6.992188 16.005859 -54.684807 5.164488 -1.441709 -0.481386 77.322472 6.250109 18.734993 65.287376 -10.197650 13.737974 -7.001954 -15.996095 21.796875 -5.592201 10.620067 -6.962499 25.728378 -5.278995 -1.859108 -33.384670 3.669078 3.778640 -2.411816 -22.318928 -3.020798 3.503801 5.034270 -0.024803 -5.285191 0.790402 0.758470 
-2.116391 53.510307 18.600491 2.561064 -3.063374 -1.887136 3.150938 1.120151 1.401885 -9.025989 1.385634 0.347445 -16.271660 -1.658992 -1.815097 36.180363 6.611375 -2.252927 -1.896031 -0.900906 0.061420 -76.300476 -16.317112 28.678038 -63.052658 10.093467 12.721235 6.992188 16.005859 -54.645741 5.164488 -1.441709 -0.481386 77.294464 6.237487 18.745930 65.288963 -10.201733 13.746704 -7.001954 -15.996095 21.738281 -5.602556 10.669683 -6.945978 25.737354 -5.283242 -1.840976 -33.346867 3.652120 3.775943 -2.411820 -22.318928 -3.020799 3.503799 5.034272 -0.024803 -5.285738 0.787770 0.757235 
-2.114837 53.511543 18.598936 2.551319 -3.064563 -1.867102 3.141286 1.099771 1.411111 -8.977157 1.395093 0.348184 -16.301245 -1.696210 -1.833842 36.200237 6.658061 -2.280561 -1.896031 -0.900906 0.061420 -76.309189 -16.337072 28.677889 -63.063587 10.094707 12.731518 6.992188 16.005859 -54.753166 5.164488 -1.441709 -0.481386 77.274155 6.245266 18.717419 65.298225 -10.198225 13.748434 -7.001954 -15.996095 21.689455 -5.601997 10.659123 -6.965089 25.747427 -5.283302 -1.851115 -33.345398 3.668247 3.775977 -2.411818 -22.318928 -3.020798 3.503797 5.034273 -0.024802 -5.296381 0.784311 0.755705 
-2.112660 53.510921 18.598625 2.541586 -3.066179 -1.837312 3.121865 1.107810 1.441080 -8.947858 1.405108 0.358216 -16.311218 -1.723475 -1.856087 36.217915 6.677278 -2.335003 -1.896031 -0.900906 0.061420 -76.309677 -16.327320 28.746248 -63.107292 10.099639 12.754841 6.992188 16.005859 -54.714104 5.164488 -1.441709 -0.481386 77.280861 6.275384 18.658432 65.265663 -10.196490 13.726820 -7.001954 -15.996095 21.660154 -5.601608 10.648815 -7.023302 25.747429 -5.283302 -1.851115 -33.400379 3.694928 3.809710 -2.411817 -22.318930 -3.020798 3.503795 5.034273 -0.024802 -5.285531 0.784788 0.766610 
